# xmcd
#
# Track frame offsets:
#	150
#	4080
#	17729
#	29760
#	39410
#	57226
#	71667
#	90336
#	105793
#	110663
#	128227
#	144842
#	156814
#	169572
#	195184
#	207936
#	224835
#	246962
#	266185
#	274713
#
# Disc length: 3844 seconds
#
# Revision: 0
# Processed by: cddbd v1.5.2PL0 Copyright (c) Steve Scherf et al.
# Submitted via: audiograbber 1.83.01
#
DISCID=170f0214
DTITLE=Tre Won Yola - ©reepin' On Ya Klanz (Unreleased Demos and Bootlegs) Valium
DTITLE=2
DYEAR=2014
DGENRE=Hip-Hop
TTITLE0=Hand Rolled 2010 (Beatbox Freestyle)
TTITLE1=A Peace Of My Mind (OG Version Freestyle)
TTITLE2=Come Find Me (Unmastered) [Lil Mimfis a.k.a. Arab solo]
TTITLE3=Yola Bandittz (Unfinished Demo) Ft. DOZ Da Banditt
TTITLE4=M.O.C. (Money Over Coochey) Ft. Arab a.k.a. Lil Mimfis and WeezLo
TTITLE5=KC (Do It Big) Ft. Pimpakid and WeezLo
TTITLE6=Servin' Coke (Freestyle)
TTITLE7=Blue'd Up (Freestyle 4 My Cuzzo Teezy)
TTITLE8=Illumination (Unfinished)
TTITLE9=Yola Fluid (Freestyle) Ft. Fluid a.k.a. Mac Mike
TTITLE10=From Da Blocc (Lost Demo) Ft. Arab a.k.a. Lil Mimfis and Teddy 
TTITLE11=Midwest Coastin' (Demo Version) Ft. Pimpakid
TTITLE12=Gettin' Doe (Lost Demo) Ft. Weezy and WeezLo
TTITLE13=223s (Freestyle Demo) Ft. DOZ Da Banditt and WeezLo
TTITLE14=Soma Coma (Freestyle)
TTITLE15=Dope Boy Fresh (Unreleased Version) Ft. DOZ Da Banditt and Arab a.
TTITLE16=Sweet Marijuana Brown (Lost Freestyle)
TTITLE17=Pacman Pills (Freestyle)
TTITLE18=How I Get Hi (OG Freestyle)
TTITLE19=Bloody Bodies (OG Freestyle)
EXTD=
EXTT0=
EXTT1=
EXTT2=
EXTT3=
EXTT4=
EXTT5=
EXTT6=
EXTT7=
EXTT8=
EXTT9=
EXTT10=
EXTT11=
EXTT12=
EXTT13=
EXTT14=
EXTT15=
EXTT16=
EXTT17=
EXTT18=
EXTT19=
PLAYORDER=
